<svg width="25" height="25" viewBox="0 0 25 25" fill="none" xmlns="http://www.w3.org/2000/svg">
<path fill-rule="evenodd" clip-rule="evenodd" d="M0.829102 12.5001C0.829102 6.05451 6.05427 0.829346 12.4998 0.829346C18.9454 0.829346 24.1706 6.05451 24.1706 12.5001C24.1706 18.9456 18.9454 24.1708 12.4998 24.1708C6.05427 24.1708 0.829102 18.9456 0.829102 12.5001ZM12.4998 3.12813C7.32385 3.12813 3.12788 7.32409 3.12788 12.5001C3.12788 17.6761 7.32385 21.872 12.4998 21.872C17.6758 21.872 21.8718 17.6761 21.8718 12.5001C21.8718 7.32409 17.6758 3.12813 12.4998 3.12813Z" fill="#F7F7F7"/>
<path fill-rule="evenodd" clip-rule="evenodd" d="M11.3506 1.97874C11.3506 1.34395 11.8652 0.829346 12.5 0.829346C18.9455 0.829346 24.1707 6.05451 24.1707 12.5001C24.1707 18.9456 18.9455 24.1708 12.5 24.1708C9.29556 24.1708 6.39089 22.8778 4.28299 20.7878C3.83222 20.3409 3.82911 19.6131 4.27606 19.1624C4.72301 18.7116 5.45076 18.7085 5.90153 19.1554C7.59644 20.836 9.9261 21.872 12.5 21.872C17.676 21.872 21.8719 17.6761 21.8719 12.5001C21.8719 7.32409 17.676 3.12813 12.5 3.12813C11.8652 3.12813 11.3506 2.61353 11.3506 1.97874Z" fill="#8DC63F"/>
</svg>
